<svg width="136" height="187" viewBox="0 0 136 187" fill="none" xmlns="http://www.w3.org/2000/svg"><g clip-path="url(#clip0)"><path d="M93.1329 61.7669C101.254 61.7669 108.078 56.2249 110.033 48.7179L115.5 49.5319C115.607 49.5479 115.715 49.5559 115.82 49.5559 116.871 49.5559 117.791 48.7859 117.951 47.7159 118.127 46.5379 117.312 45.4399 116.135 45.2649L110.594 44.4399C110.596 44.3939 110.598 44.3489 110.598 44.3019 110.598 44.1199 110.592 43.9399 110.584 43.7599 110.584 43.7599 110.133 37.2419 109.51 34.5229 108.889 31.8039 106.975 31.2269 106.975 31.2269 97.2049 29.0149 87.2029 28.7889 84.5999 28.7889 81.9969 28.7889 81.4419 30.1209 81.4419 30.1209L78.2919 35.1169 78.2819 35.1139C78.2059 35.2359 78.136 35.3589 78.063 35.4819L78.0359 35.5249C76.5339 38.1049 75.6689 41.1009 75.6689 44.3019 75.6679 53.9479 83.4879 61.7669 93.1329 61.7669v0z" fill="#fff"/><path d="M131.535 101.076V101.074L104.793 98.906 95.5469 77.794C95.5469 77.794 95.0859 75.02 89.5389 69.318 83.9899 63.616 72.7399 65.928 72.7399 65.928 72.7399 65.928 48.8539 70.397 40.9949 72.246 33.1349 74.096 32.8269 82.109 32.8269 82.109L32.1949 86.628 17.0169 83.687C16.8259 83.65 16.6359 83.632 16.4489 83.632 15.0419 83.632 13.7779 84.632 13.5009 86.061L6.08995 124.303C5.77595 125.923 6.84395 127.505 8.46495 127.819L59.6609 137.742C59.7759 137.764 59.8909 137.766 60.0069 137.775H60.0089C59.2809 137.879 58.7179 137.74 58.7179 137.74L49.3179 135.891 46.2359 152.996 22.6759 173.359C20.9749 174.72 19.8839 176.812 19.8839 179.16 19.8839 183.264 23.2099 186.59 27.3129 186.59 29.3479 186.59 31.1909 185.772 32.5329 184.445 32.5329 184.445 60.2579 162.395 62.1079 160.854 63.9579 159.314 64.8809 157.001 64.8809 157.001 64.8809 157.001 69.422 143.053 70.66 140.127 71.508 138.123 75.5919 139.048 75.5919 139.048L98.4769 147.679 106.092 176.741C106.174 177.371 106.334 177.975 106.565 178.545H106.567C107.665 181.273 110.337 183.199 113.456 183.199 117.56 183.199 120.886 179.872 120.886 175.769 120.886 175.17 120.814 174.59 120.679 174.033 119.837 169.068 116.075 146.987 115.118 142.207 114.04 136.813 110.497 135.273 110.497 135.273 110.497 135.273 89.2289 123.715 87.8429 122.944 86.4559 122.174 86.7649 120.17 86.7649 120.17L90.6949 105.839 93.4679 111.695C93.4679 111.695 95.0869 114.969 97.5519 115.086L130.909 115.906C135.013 115.906 138.339 112.58 138.339 108.475 138.338 104.586 135.346 101.396 131.535 101.076v0zM60.1039 85.807 58.3149 91.687 68.2129 93.606 47.9989 89.689 48.5469 87.193 60.1039 85.807zM57.8549 131.28 12.5509 122.499 18.8209 90.146 31.3629 92.577 29.7449 104.144 29.1049 108.55C29.0999 108.576 29.0969 108.606 29.0929 108.632L29.0749 108.759H29.0769C29.0369 109.071 29.0139 109.388 29.0139 109.71 29.0139 113.814 32.3409 117.139 36.4439 117.139 40.5469 117.139 43.8729 113.814 43.8729 109.71 43.8729 109.392 43.8519 109.08 43.8119 108.773L46.7129 95.55 64.1259 98.924 57.8549 131.28z" fill="#fff"/><path d="M25.0499 40.008h38.027C64.1769 40.008 65.0769 39.112 65.0769 38.018 65.0769 36.924 64.1769 36.028 63.0769 36.028H25.0499C23.9499 36.028 23.0499 36.924 23.0499 38.018 23.0499 39.112 23.9499 40.008 25.0499 40.008v0z" fill="#fff"/><path d="M38.08 46.0249C36.98 46.0249 36.08 46.9209 36.08 48.0149 36.08 49.1089 36.98 50.0049 38.08 50.0049H61.039C62.139 50.0049 63.039 49.1089 63.039 48.0149 63.039 46.9199 62.139 46.0249 61.039 46.0249H38.08z" fill="#fff"/><path d="M87.0981 55.732C95.2191 55.732 102.043 50.19 103.998 42.683L109.465 43.497C109.572 43.513 109.68 43.521 109.785 43.521 110.836 43.521 111.756 42.751 111.916 41.681 112.092 40.503 111.277 39.405 110.1 39.23L104.559 38.405C104.561 38.359 104.563 38.314 104.563 38.267 104.563 38.085 104.557 37.905 104.549 37.725 104.549 37.725 104.098 31.207 103.475 28.488 102.854 25.769 100.94 25.192 100.94 25.192 91.1701 22.98 81.1681 22.754 78.5641 22.754 75.9601 22.754 75.4061 24.086 75.4061 24.086L72.2561 29.082 72.2461 29.079C72.1701 29.2 72.1001 29.324 72.0271 29.447L72.0001 29.49C70.4981 32.07 69.6331 35.066 69.6331 38.267 69.6331 47.913 77.4531 55.732 87.0981 55.732v0z" fill="#3a3a3a"/><path d="M125.5 95.0411V95.0391L98.758 92.8711 89.512 71.7591C89.512 71.7591 89.051 68.9851 83.504 63.2831 77.955 57.5811 66.705 59.8931 66.705 59.8931 66.705 59.8931 42.819 64.3621 34.96 66.2101 27.1 68.0601 26.792 76.0731 26.792 76.0731L23.71 98.1091 23.07 102.515C23.065 102.541 23.062 102.571 23.058 102.597L23.04 102.724H23.042C23.002 103.036 22.979 103.353 22.979 103.675 22.979 107.779 26.306 111.104 30.409 111.104 34.512 111.104 37.838 107.779 37.838 103.675 37.838 103.357 37.817 103.045 37.777 102.738L42.511 81.1571 54.068 79.7711 52.279 85.6511 62.177 87.5701C63.797 87.8831 64.865 89.4661 64.552 91.0871L57.14 129.33C56.863 130.76 55.599 131.76 54.192 131.76 54.12 131.76 54.046 131.744 53.972 131.739 53.244 131.843 52.681 131.704 52.681 131.704L43.281 129.855 40.199 146.96l-23.56 20.363C14.938 168.684 13.847 170.776 13.847 173.124 13.847 177.228 17.173 180.554 21.276 180.554 23.311 180.554 25.154 179.736 26.496 178.409 26.496 178.409 54.221 156.359 56.071 154.818 57.921 153.278 58.844 150.965 58.844 150.965 58.844 150.965 63.385 137.017 64.623 134.091 65.471 132.087 69.555 133.012 69.555 133.012L92.44 141.643 100.055 170.705C100.137 171.335 100.297 171.939 100.528 172.509H100.53C101.628 175.237 104.3 177.163 107.419 177.163 111.523 177.163 114.849 173.836 114.849 169.733 114.849 169.134 114.777 168.554 114.642 167.997 113.8 163.032 110.038 140.951 109.081 136.171 108.003 130.777 104.46 129.237 104.46 129.237 104.46 129.237 83.193 117.682 81.807 116.91 80.42 116.14 80.729 114.136 80.729 114.136L84.659 99.8051 87.432 105.661C87.432 105.661 89.051 108.935 91.516 109.052L124.873 109.872C128.977 109.872 132.303 106.546 132.303 102.441 132.303 98.5511 129.311 95.3601 125.5 95.0411v0z" fill="#3a3a3a"/><path d="M53.9708 132.144H53.9728C54.0458 132.15 54.1198 132.165 54.1928 132.165 55.5998 132.165 56.8638 131.165 57.1408 129.735L64.5528 91.492C64.8658 89.871 63.7978 88.289 62.1778 87.975L41.9638 84.058 40.6778 89.92 58.0908 93.294 51.8198 125.648 6.51579 116.869 12.7858 84.516 25.3278 86.947 26.1598 80.997 10.9818 78.055C10.7908 78.018 10.6008 78 10.4138 78 9.00679 78 7.74279 79 7.46579 80.429L.0547894 118.673C-.259211 120.293.808789 121.875 2.42979 122.189L53.6258 132.112C53.7398 132.134 53.8548 132.135 53.9708 132.144v0z" fill="#f0c42e"/><path d="M59.042 31.9819C59.042 33.0769 58.142 33.9719 57.042 33.9719H19.015C17.915 33.9719 17.015 33.0759 17.015 31.9819 17.015 30.8879 17.915 29.9919 19.015 29.9919H57.042C58.142 29.9929 59.042 30.8879 59.042 31.9819z" fill="#f0c52e"/><path d="M57.0039 41.98C57.0039 43.074 56.1039 43.97 55.0039 43.97h-22.96C30.9439 43.97 30.0439 43.074 30.0439 41.98 30.0439 40.885 30.9439 39.99 32.0439 39.99H55.0029C56.1039 39.99 57.0039 40.886 57.0039 41.98z" fill="#f0c52e"/></g><defs><clipPath id="clip0"><path d="M0 0h136v187H0z" fill="#fff"/></clipPath></defs></svg>