<svg width="171" height="200" viewBox="0 0 171 200" fill="none" xmlns="http://www.w3.org/2000/svg"><g clip-path="url(#clip0)"><path d="M77.694 179.636C77.59 179.506 67.199 166.64 65.085 163.876 63.764 162.149 61.778 161.198 59.492 161.198 56.932 161.198 54.656 162.368 53.98 162.751L48.494 165.494C46.721 165.015 42.907 163.544 39.214 159.226 35.93 155.387 35.953 150.24 36.128 148.127L42.021 142.234C45.114 139.517 44.473 135.718 43.267 133.803L43.048 133.492C43.048 133.492 30.186 117.271 28.382 114.994 27.393 113.745 25.907 113.056 24.198 113.056 21.349 113.056 18.319 115.031 17.442 115.648 6.55699 123.397 5.85599 130.21 5.81099 130.961L5.78699 131.375 5.86099 131.784C12.273 167.51 31.887 182.921 41.314 190.327 42.462 191.228 43.454 192.008 44.168 192.633 50.731 198.38 57.93 199 60.721 199 63.096 198.999 65.201 198.595 66.81 197.829 71.176 195.751 76.235 189.819 77.682 188.051 80.183 184.992 78.965 181.452 77.85 179.843L77.694 179.636zM63.801 191.509C63.302 191.746 62.231 192 60.72 192 59.16 192 53.688 191.666 48.776 187.368 47.922 186.621 46.863 185.789 45.637 184.825 36.943 177.995 18.908 163.824 12.857 131.141 13.146 130.162 14.686 126.203 21.477 121.37 22.129 120.917 22.985 120.466 23.596 120.228 26.427 123.8 35.006 134.62 37.098 137.258L29.57 144.785 29.367 145.84C29.286 146.262 27.456 156.249 33.894 163.777 40.18 171.126 47.144 172.444 48.477 172.633L49.559 172.787 57.203 168.964 57.421 168.846C57.702 168.679 58.756 168.198 59.492 168.198 59.528 168.198 59.557 168.199 59.58 168.201 61.729 171.001 70.685 182.098 72.08 183.825 72.081 183.829 72.082 183.832 72.084 183.835 69.522 186.93 65.911 190.504 63.801 191.509z" fill="#fff"/><path d="M137.85 70.8239C143.362 65.6469 145.006 58.8489 142.883 50.0409 142.676 49.1849 142.035 48.4999 141.194 48.2389 140.352 47.9769 139.434 48.1789 138.78 48.7689L130.559 56.1719C129.121 55.3769 126.883 53.7209 126.094 50.8419L132.897 44.1129C133.844 43.1749 133.889 41.6599 133.001 40.6669L132.815 40.4599C132.622 40.2439 132.393 40.0639 132.137 39.9269 131.977 39.8409 128.149 37.8109 123.313 37.8109 118.604 37.8109 114.454 39.7319 111.311 43.3669 105.311 50.3049 106.754 58.4089 107.768 61.8379L104.28 65.3259 93.996 56.0899 98.713 52.8239 78.671 39.0999 68.07 49.7029 81.794 69.7439 85.06 65.0269 94.297 75.3089 91.002 78.6029C89.502 78.1249 87.119 77.5509 84.339 77.5509 78.91 77.5509 74.103 79.7249 70.377 83.9099 70.106 84.2389 63.778 92.0749 67.626 102.531 67.91 103.304 68.557 103.887 69.355 104.091 70.151 104.294 71 104.092 71.619 103.55L79.914 96.2909C81.237 96.8579 83.536 98.3709 84.573 102.216L77.189 109.732C76.555 110.377 76.319 111.314 76.572 112.182 76.825 113.05 77.526 113.714 78.407 113.919 78.517 113.944 81.131 114.542 84.582 114.542 91.422 114.542 96.694 112.271 99.827 107.975 103.19 103.362 103.921 98.5419 103.821 94.8869L120.038 111.104 120.21 111.262C121.731 112.522 124.528 113.987 127.661 113.987 129.888 113.987 132.286 113.246 134.513 111.163L140.031 105.647 140.133 105.543C145.145 100.185 142.391 93.8449 140.233 91.2409L123.288 74.2819C124.315 74.3879 125.436 74.4629 126.61 74.4629 131.498 74.4619 135.279 73.2379 137.85 70.8239zM84.551 56.9779 81.817 60.9269 74.541 50.3019 79.272 45.5699 89.897 52.8459 85.947 55.5799 100.739 68.8659 96.645 72.9589 97.836 71.7669 84.551 56.9779zM98.113 90.5019C98.222 90.8149 100.728 98.2479 95.785 105.029 93.015 108.827 88.037 109.555 84.385 109.541L89.088 104.754C89.654 104.178 89.908 103.363 89.768 102.567 87.977 92.4199 80.023 91.0829 79.685 91.0309 78.956 90.9209 78.214 91.1349 77.658 91.6199L71.454 97.0479C70.932 91.4879 73.867 87.5589 74.213 87.1159 76.934 84.0859 80.34 82.5499 84.338 82.5499 87.853 82.5499 90.569 83.7609 90.587 83.7699 91.54 84.2089 92.663 84.0109 93.405 83.2689l19-19C113.13 63.5449 113.339 62.4529 112.932 61.5129 112.897 61.4299 109.438 53.1729 115.09 46.6369 117.285 44.0979 120.051 42.8109 123.311 42.8109 124.541 42.8109 125.694 42.9939 126.676 43.2319L121.629 48.2249C121.078 48.7689 120.811 49.5369 120.904 50.3049 121.916 58.6049 129.873 61.3819 130.211 61.4959 131.066 61.7839 132.012 61.5899 132.684 60.9849L138.733 55.5379C139.106 60.4019 137.713 64.0919 134.424 67.1799 132.416 69.0669 129.065 69.4629 126.606 69.4629 122.917 69.4629 119.655 68.5979 119.624 68.5899 118.759 68.3539 117.829 68.6039 117.194 69.2429L98.694 87.9099C98.023 88.5869 97.801 89.5999 98.113 90.5019zM103.615 92.3439C103.615 92.3469 103.615 92.3489 103.615 92.3519 103.615 92.3489 103.615 92.3469 103.615 92.3439zM103.434 91.2229C103.444 91.2749 103.454 91.3269 103.463 91.3809 103.453 91.3289 103.443 91.2739 103.434 91.2229zM136.525 102.079 131.046 107.555C127.798 110.535 124.146 107.987 123.47 107.468L104.827 88.8229 119.768 73.7479 117.733 75.8009 136.44 94.5069C136.9 95.0989 139.537 98.7939 136.525 102.079zM121.316 74.0249C121.324 74.0259 121.332 74.0269 121.339 74.0289 121.332 74.0269 121.324 74.0259 121.316 74.0249zM120.473 73.8819C120.493 73.8859 120.518 73.8899 120.539 73.8939 120.516 73.8899 120.494 73.8859 120.473 73.8819z" fill="#fff"/><path d="M104.162 11.002C67.754 11.002 38.24 40.516 38.24 76.924 38.24 110.441 63.26 138.096 95.638 142.278V168.502C95.638 168.502 153.077 147.259 167.607 94.88 167.685 94.597 167.746 94.342 167.818 94.068 167.931 93.644 168.043 93.218 168.148 92.791 168.212 92.528 168.267 92.277 168.326 92.022 169.463 87.171 170.084 82.121 170.084 76.924 170.084 40.516 140.57 11.002 104.162 11.002zM161.51 90.424 161.504 90.451 161.498 90.478 161.469 90.608C161.43 90.778 161.393 90.947 161.35 91.123 161.256 91.499 161.159 91.8739 161.049 92.284L160.945 92.684C160.92 92.792 160.892 92.9 160.863 93.008 155.299 113.064 142.343 130.708 122.357 145.45 114.984 150.888 107.949 154.914 102.638 157.625V142.277 136.123L96.534 135.335C67.291 131.558 45.239 106.446 45.239 76.923 45.239 44.4329 71.671 18.001 104.161 18.001 136.649 18.001 163.083 44.4329 163.083 76.923 163.084 81.432 162.555 85.974 161.51 90.424z" fill="#fff"/><path d="M54.583 192.998C51.792 192.998 44.5939 192.378 38.0289 186.634 37.3149 186.009 36.3229 185.23 35.1749 184.328 25.749 176.922 6.13395 161.511-.278051 125.785L-.352051 125.376-.328051 124.962C-.284051 124.21.41795 117.398 11.3029 109.649 12.1799 109.032 15.2099 107.057 18.0589 107.057 19.7669 107.057 21.2529 107.745 22.2429 108.995 24.0469 111.272 36.909 127.493 36.909 127.493L37.1279 127.804C38.334 129.719 38.9749 133.518 35.882 136.235L29.9889 142.128C29.8139 144.24 29.791 149.388 33.075 153.227 36.767 157.544 40.582 159.016 42.3549 159.495L47.841 156.752C48.5169 156.369 50.7929 155.199 53.353 155.199 55.639 155.199 57.625 156.15 58.9459 157.877 61.0599 160.641 71.4499 173.507 71.5549 173.637L71.7099 173.844C72.8249 175.453 74.0429 178.993 71.5419 182.052 70.0949 183.821 65.0369 189.752 60.6699 191.83 59.063 192.593 56.958 192.997 54.583 192.998zM6.71995 125.14C12.7709 157.823 30.806 171.994 39.5 178.824 40.726 179.788 41.785 180.62 42.639 181.367 47.5509 185.665 53.0229 185.999 54.583 185.999 56.094 185.999 57.165 185.745 57.664 185.508 59.774 184.503 63.3859 180.929 65.9479 177.834 65.9469 177.831 65.9449 177.828 65.9439 177.824 64.5499 176.097 55.5929 165 53.444 162.2 53.421 162.198 53.3909 162.197 53.3559 162.197 52.6199 162.197 51.5659 162.678 51.285 162.845L51.067 162.963 43.423 166.786 42.341 166.632C41.0079 166.443 34.0439 165.124 27.7579 157.776 21.3199 150.249 23.15 140.261 23.2309 139.839L23.4339 138.784 30.9619 131.257C28.8699 128.618 20.2909 117.799 17.4599 114.227 16.8489 114.464 15.9929 114.915 15.3409 115.369 8.54795 120.202 7.00795 124.161 6.71995 125.14z" fill="#3a3a3a"/><path d="M78.443 108.54C74.991 108.54 72.378 107.942 72.268 107.917 71.387 107.712 70.685 107.048 70.433 106.18 70.181 105.312 70.416 104.374 71.05 103.73L78.434 96.214C77.397 92.369 75.098 90.857 73.775 90.289L65.48 97.548C64.86 98.09 64.012 98.292 63.216 98.089 62.418 97.886 61.772 97.302 61.487 96.53 57.639 86.073 63.967 78.237 64.238 77.908 67.964 73.723 72.771 71.549 78.2 71.549 80.98 71.549 83.362 72.123 84.863 72.601L101.629 55.836C100.616 52.406 99.172 44.302 105.172 37.365 108.315 33.731 112.465 31.809 117.174 31.809 122.011 31.809 125.838 33.838 125.999 33.925 126.254 34.062 126.483 34.242 126.676 34.458L126.862 34.665C127.752 35.658 127.707 37.173 126.758 38.111L119.955 44.84C120.744 47.719 122.983 49.375 124.42 50.17L132.642 42.767C133.296 42.177 134.214 41.975 135.055 42.237 135.897 42.498 136.538 43.182 136.745 44.039 138.868 52.848 137.223 59.645 131.712 64.822 129.142 67.236 125.359 68.46 120.47 68.46 117.681 68.46 115.146 68.053 113.631 67.746L97.127 84.399C97.856 87.58 98.758 95.019 93.688 101.973 90.555 106.269 85.283 108.54 78.443 108.54zM78.247 103.539C81.898 103.554 86.878 102.825 89.647 99.027 94.591 92.246 92.085 84.813 91.976 84.5 91.663 83.598 91.885 82.585 92.558 81.907L111.058 63.24C111.692 62.601 112.622 62.351 113.488 62.587 113.518 62.595 116.781 63.46 120.47 63.46 122.928 63.46 126.281 63.064 128.288 61.177 131.576 58.089 132.969 54.399 132.597 49.535L126.548 54.982C125.876 55.586 124.931 55.781 124.075 55.493 123.737 55.379 115.78 52.602 114.768 44.302 114.674 43.534 114.941 42.766 115.492 42.222L120.539 37.229C119.558 36.991 118.404 36.808 117.174 36.808 113.915 36.808 111.15 38.096 108.953 40.634 103.302 47.17 106.761 55.427 106.796 55.51 107.201 56.45 106.992 57.543 106.268 58.266L87.268 77.266C86.527 78.008 85.403 78.206 84.451 77.767 84.433 77.759 81.716 76.547 78.201 76.547 74.203 76.547 70.797 78.083 68.076 81.113 67.729 81.555 64.794 85.485 65.317 91.045L71.521 85.617C72.077 85.131 72.819 84.917 73.548 85.028 73.885 85.08 81.839 86.417 83.63 96.564 83.771 97.36 83.518 98.174 82.951 98.751L78.247 103.539z" fill="#f0c42e"/><path d="M78.921 59.025 88.158 69.307 91.698 65.766 78.413 50.976 75.678 54.925 68.402 44.301 73.134 39.569 83.759 46.845 79.809 49.579 94.6 62.865 98.141 59.324 87.858 50.088 92.575 46.822 72.533 33.098 61.932 43.701 75.656 63.742 78.921 59.025z" fill="#3a3a3a"/><path d="M117.147 68.28C115.734 68.134 114.507 67.924 113.63 67.746L111.596 69.799 130.302 88.505C130.762 89.097 133.399 92.792 130.386 96.077L124.908 101.553C121.66 104.533 118.007 101.985 117.332 101.466L98.69 82.821 97.127 84.399C97.372 85.469 97.632 87.029 97.682 88.884L113.899 105.102 114.072 105.26C115.593 106.52 118.39 107.985 121.522 107.985 123.75 107.985 126.147 107.244 128.375 105.161L133.893 99.645 133.995 99.542C139.007 94.184 136.252 87.843 134.094 85.239L117.147 68.28z" fill="#3a3a3a"/><path d="M98.0231 12C130.512 12 156.945 38.432 156.945 70.922 156.945 75.43 156.416 79.972 155.372 84.422L155.366 84.449 155.359 84.476 155.33 84.606C155.292 84.776 155.254 84.945 155.212 85.121 155.118 85.497 155.021 85.872 154.91 86.282L154.807 86.682C154.781 86.79 154.753 86.898 154.724 87.006 149.16 107.062 136.204 124.706 116.218 139.448 108.845 144.886 101.81 148.912 96.4991 151.623V136.275 130.121L90.395 129.333C61.152 125.556 39.1011 100.444 39.1011 70.921 39.1021 38.432 65.5341 12 98.0231 12zm0-7C61.6161 5 32.1021 34.514 32.1021 70.922 32.1021 104.439 57.1221 132.094 89.5 136.276V162.5C89.5 162.5 146.939 141.257 161.47 88.878 161.548 88.595 161.608 88.34 161.68 88.066 161.794 87.642 161.905 87.216 162.011 86.789 162.074 86.526 162.13 86.275 162.188 86.02 163.326 81.169 163.946 76.119 163.946 70.922 163.945 34.514 134.432 5 98.0231 5z" fill="#3a3a3a"/></g><defs><clipPath id="clip0"><path d="M0 0h171v2e2H0z" fill="#fff"/></clipPath></defs></svg>