<svg width="10" height="10" viewBox="0 0 10 10" fill="none" xmlns="http://www.w3.org/2000/svg"><path d="M9.86203 2.5217C9.79266 2.43991 9.69329 2.39316 9.58915 2.39316H7.65761V3.4188C7.65761 3.89008 7.25347 4.2735 6.75671 4.2735 6.25996 4.2735 5.85581 3.89008 5.85581 3.4188V2.39316H4.05401V3.4188C4.05401 3.89008 3.64987 4.2735 3.15311 4.2735 2.65635 4.2735 2.25221 3.89008 2.25221 3.4188V2.39316H.320768C.216534 2.39316.117164 2.43991.0477949 2.5217-.0216646 2.6035-.0545475 2.71256-.0426556 2.82145L.605543 8.78461C.617615 9.45692 1.14167 9.99999 1.78419 9.99999H8.12572C8.76815 9.99999 9.29221 9.45692 9.30437 8.78452L9.95257 2.82136C9.96437 2.71256 9.93149 2.6035 9.86203 2.5217z" fill="#231f20"/><path d="M3.15309 3.76068C3.35182 3.76068 3.51345 3.60735 3.51345 3.4188V1.53846C3.51345 1.01051 4.07462.683761 4.59453.683761h.9009C6.04264.683761 6.39633 1.01923 6.39633 1.53846V3.4188C6.39633 3.60735 6.55804 3.76068 6.75669 3.76068 6.95534 3.76068 7.11705 3.60735 7.11705 3.4188V1.53846C7.11705.647009 6.43507.0 5.49543.0h-.9009C3.60101.0 2.79272.690171 2.79272 1.53846V3.4188C2.79272 3.60735 2.95435 3.76068 3.15309 3.76068z" fill="#231f20"/></svg>