<svg width="32" height="32" viewBox="0 0 32 32" fill="none" xmlns="http://www.w3.org/2000/svg"><path d="M16 32C13.8333 32 11.7604 31.5781 9.78125 30.7344 7.80208 29.8906 6.09896 28.7552 4.67188 27.3281 3.24479 25.901 2.10938 24.1979 1.26562 22.2188.421875 20.2396.0 18.1667.0 16 0 13.8333.421875 11.7604 1.26562 9.78125 2.10938 7.80208 3.24479 6.09896 4.67188 4.67188 6.09896 3.24479 7.80208 2.10938 9.78125 1.26562 11.7604.421875 13.8333.0 16 0 18.1667.0 20.2396.421875 22.2188 1.26562 24.1979 2.10938 25.901 3.24479 27.3281 4.67188 28.7552 6.09896 29.8906 7.80208 30.7344 9.78125 31.5781 11.7604 32 13.8333 32 16 32 18.1667 31.5781 20.2396 30.7344 22.2188 29.8906 24.1979 28.7552 25.901 27.3281 27.3281 25.901 28.7552 24.1979 29.8906 22.2188 30.7344 20.2396 31.5781 18.1667 32 16 32zM25.4062 8C25.2812 8.0625 25.0938 8.17708 24.8438 8.34375L24.2344 8.75 23.6562 9.0625 23 9.28125C22.2292 8.42708 21.2812 8 20.1562 8 17.7188 8 16.5 9.02083 16.5 11.0625V12.9062C13.1458 12.7396 10.5729 11.5104 8.78125 9.21875 8.26042 9.76042 8 10.3542 8 11 8 12.375 8.51042 13.4167 9.53125 14.125 9.40625 14.125 9.22917 14.1354 9 14.1562 8.77083 14.1771 8.58854 14.1771 8.45312 14.1562 8.31771 14.1354 8.16667 14.0833 8 14 8 14.9583 8.25521 15.7552 8.76562 16.3906 9.27604 17.026 9.97917 17.4375 10.875 17.625 10.6667 17.875 10.375 18 10 18 9.66667 18 9.375 17.9062 9.125 17.7188 9.125 18.5312 9.51562 19.1615 10.2969 19.6094 11.0781 20.0573 11.9583 20.2917 12.9375 20.3125 12.5625 20.875 12.0156 21.2969 11.2969 21.5781 10.5781 21.8594 9.8125 22 9 22 8.70833 22 8.30729 21.9271 7.79688 21.7812 7.28646 21.6354 7.02083 21.5625 7 21.5625 7.33333 22.2292 8.01562 22.8021 9.04688 23.2812 10.0781 23.7604 11.3854 24 12.9688 24 14.3646 24 15.6667 23.7552 16.875 23.2656 18.0833 22.776 19.1146 22.125 19.9688 21.3125 20.8229 20.5 21.5573 19.5729 22.1719 18.5312 22.7865 17.4896 23.2448 16.4115 23.5469 15.2969 23.849 14.1823 24 13.0833 24 12 24 11.9583 24.125 11.8698 24.375 11.7344 24.625 11.599 24.9167 11.4167 25.25 11.1875 25.5833 10.9583 25.8333 10.7188 26 10.4688 24.875 10.4688 24.125 10.4896 23.75 10.5312 24.4792 10.0938 25.0312 9.25 25.4062 8z" fill="#fff" fill-opacity=".6"/></svg>