<svg width="163" height="35" viewBox="0 0 163 35" fill="none" xmlns="http://www.w3.org/2000/svg"><g clip-path="url(#clip0)"><path fill-rule="evenodd" clip-rule="evenodd" d="M-.151001.702054V34.3021H13.381C15.5624 34.3554 17.7309 33.954 19.7487 33.1235 21.7665 32.293 23.5892 31.0515 25.101 29.4781 26.6506 27.9008 27.8665 26.0274 28.6761 23.9697 29.4857 21.9121 29.8724 19.7124 29.813 17.5021 29.8724 15.2917 29.4857 13.092 28.6761 11.0344 27.8665 8.97675 26.6506 7.10336 25.101 5.52605 23.5891 3.95276 21.7663 2.71136 19.7486 1.88085 17.7308 1.05034 15.5623.648895 13.381.702054H-.151001zM7.582 26.9101V8.09105h5.8C14.5845 8.04315 15.7838 8.24682 16.903 8.68901 18.0223 9.13121 19.0369 9.80221 19.882 10.6591 20.7304 11.5767 21.3875 12.6542 21.8149 13.8286 22.2422 15.003 22.4313 16.2508 22.371 17.4991 22.4313 18.7474 22.2423 19.9952 21.8149 21.1696 21.3876 22.344 20.7305 23.4215 19.882 24.3391 19.0371 25.1961 18.0225 25.8672 16.9032 26.3094 15.7839 26.7517 14.5845 26.9552 13.382 26.9071h-5.8V26.9101zM42.382 20.9581H54.464V13.6581H42.378V8.09105H55.669V.702054H34.645V34.3021H55.91V26.9101H42.378V20.9581H42.382zM78.725 34.3021 89.744.702054H81.286L73.795 25.4221 66.304.702054H57.847L68.866 34.3021H78.725zM93.125 34.3021H100.858V.702054H93.125V34.3021zM131.74 32.8861C134.233 31.574 136.321 29.6076 137.781 27.1981L131.111 23.3581C130.381 24.659 129.279 25.7121 127.946 26.3821 126.505 27.1263 124.903 27.5041 123.282 27.4821 121.962 27.5449 120.643 27.3343 119.408 26.8635 118.173 26.3927 117.048 25.6718 116.105 24.7461 115.195 23.7792 114.489 22.6394 114.028 21.3943 113.568 20.1492 113.362 18.8242 113.423 17.4981 113.362 16.1719 113.568 14.8469 114.028 13.6018 114.489 12.3567 115.195 11.2169 116.105 10.2501 117.048 9.32428 118.173 8.60339 119.408 8.13258 120.643 7.66177 121.962 7.45119 123.282 7.51405 124.893 7.49104 126.486 7.86178 127.921 8.59405 129.263 9.27186 130.373 10.3327 131.111 11.6421L137.781 7.80205C136.294 5.39752 134.191 3.43384 131.691 2.11405 129.109.72096 126.216.0027445 123.282.0260544 113.503-.245946 105.485 7.71705 105.691 17.4981 105.483 27.2791 113.5 35.2451 123.279 34.9741 126.229 35.0013 129.138 34.2831 131.737 32.8861H131.74zM149.621 20.9581H161.703V13.6581H149.618V8.09105H162.908V.702054H141.885V34.3021H163.15V26.9101H149.618V20.9581H149.621z" fill="#f0c52e"/></g><defs><clipPath id="clip0"><path d="M0 0h163v35H0z" fill="#fff"/></clipPath></defs></svg>